{"title":"Undercover - Baker Street ( 1992 CD Maxi Single ) ( FLAC )","uid":4941096,"size":106619794,"categoryP":"audio","categoryS":"flac","magnet":"?xt=urn:btih:3711c69bfabee7b47b70d40e32273cc8daf8987b&amp;dn=Undercover+-+Baker+Street+%28+1992+CD+Maxi+Single+%29+%28+FLAC+%29&amp;tr=udp%3A%2F%2Ftracker.openbittorrent.com%3A80&amp;tr=udp%3A%2F%2Fopen.demonii.com%3A1337&amp;tr=udp%3A%2F%2Ftracker.coppersurfer.tk%3A6969&amp;tr=udp%3A%2F%2Fexodus.desync.com%3A6969","seeders":1,"leechers":0,"uploader":"foteberg","files":9,"time":1244461804,"description":"Undercover - Baker Street (CD Single) (EAC FLAC CUE Log Scans) Included\n\n\n\n\n\n\nLabel:\tPWL International\n\nCatalog#:\t4509-90420-2\n\nFormat:\tCD, Maxi-Single\n\nCountry:\tGermany\n\nReleased:\t1992\n\nGenre:\tElectronic\n\nStyle:\tHouse, Euro House\n\nCredits:\tProducer, Mixed By - Steve Mac\n\n\n\n\n\n\nTracklisting:\n\n\n1 \t  \tBaker Street (Edit) (4:04)\n\n2 \t  \tBaker Street (Extended Mix) (5:10)\n\n3 \t  \tSha-Bang (Extended Mix) (5:49)\n\n\n\n\n\n\n\n\n\n\n\nExact Audio Copy V0.99 prebeta 4 from 23. January 2008\n\nEAC extraction logfile from 23. May 2009, 20:14\n\nUndercover / Baker Street\n\nUsed drive  : HL-DT-STDVD-RAM GSA-H50L   Adapter: 0  ID: 0\n\nRead mode               : Secure\nUtilize accurate stream : Yes\nDefeat audio cache      : No\nMake use of C2 pointers : No\n\nRead offset correction                      : 102\nOverread into Lead-In and Lead-Out          : No\nFill up missing offset samples with silence : Yes\nDelete leading and trailing silent blocks   : No\nNull samples used in CRC calculations       : No\nUsed interface                              : Native Win32 interface for Win NT &amp; 2000\nGap handling                                : Not detected, thus appended to previous track\n\nUsed output format : Internal WAV Routines\nSample format      : 44.100 Hz; 16 Bit; Stereo\n\n\nTOC of the extracted CD\n\n     Track |   Start  |  Length  | Start sector | End sector \n    ---------------------------------------------------------\n        1  |  0:00.00 |  4:06.52 |         0    |    18501   \n        2  |  4:06.52 |  5:12.00 |     18502    |    41901   \n        3  |  9:18.52 |  5:48.73 |     41902    |    68074   \n\n\nTrack  1\n\n     Filename F:uTorrentUndercover - Baker StreetBaker Street [Edit].wav\n\n     Peak level 88.8 %\n     Track quality 99.8 %\n     Test CRC 4AE36FFD\n     Copy CRC 4AE36FFD\n     Accurately ripped (confidence 14)  [CB73B7E2]\n     Copy OK\n\nTrack  2\n\n     Filename F:uTorrentUndercover - Baker StreetBaker Street [Extended Mix].wav\n\n     Peak level 93.0 %\n     Track quality 100.0 %\n     Test CRC 59011E60\n     Copy CRC 59011E60\n     Accurately ripped (confidence 16)  [030A0A93]\n     Copy OK\n\nTrack  3\n\n     Filename F:uTorrentUndercover - Baker StreetSha-Bang [Extended Mix].wav\n\n     Peak level 82.3 %\n     Track quality 100.0 %\n     Test CRC DE9F3140\n     Copy CRC DE9F3140\n     Accurately ripped (confidence 12)  [43B24D01]\n     Copy OK\n\n\nAll tracks accurately ripped\n\nNo errors occurred\n\nEnd of status report\n\n\n\n\n\n\nThanks for Seeding...\n\nEnjoy..!!\n\n\n\n\n","torrent":{"xt":"urn:btih:3711c69bfabee7b47b70d40e32273cc8daf8987b","amp;dn":"Undercover+-+Baker+Street+%28+1992+CD+Maxi+Single+%29+%28+FLAC+%29","amp;tr":["udp%3A%2F%2Ftracker.openbittorrent.com%3A80","udp%3A%2F%2Fopen.demonii.com%3A1337","udp%3A%2F%2Ftracker.coppersurfer.tk%3A6969","udp%3A%2F%2Fexodus.desync.com%3A6969"],"infoHash":"3711c69bfabee7b47b70d40e32273cc8daf8987b","infoHashBuffer":{"type":"Buffer","data":[55,17,198,155,250,190,231,180,123,112,212,14,50,39,60,200,218,248,152,123]},"announce":[],"urlList":[]}}